# xmcd
#
# Track frame offsets:
#	150
#	13200
#	26506
#	45412
#	54003
#	64430
#	74969
#	85975
#	101683
#	112379
#	132014
#	144206
#
# Disc length: 2081 seconds
#
# Revision: 0
# Processed by: cddbd v1.4PL0 Copyright (c) Steve Scherf et al.
# Submitted via: dBpowerAMP V4.0
#
DISCID=ac081f0c
DTITLE=HazelCreek - Hickory Wind
DYEAR=1900
DGENRE=Country
TTITLE0=Midnight On The Highway
TTITLE1=Julianne
TTITLE2=Eternity Has begun
TTITLE3=Cumberland gap
TTITLE4=Sweetheart Yoy Have broken Your Promise
TTITLE5=Hickory Wind
TTITLE6=Train Of God
TTITLE7=Walking Thru The Memory
TTITLE8=Montanna Cowboy
TTITLE9=This Valley Is for me
TTITLE10=Cherokee Lady
TTITLE11=There Is A God
EXTD=
EXTT0=
EXTT1=
EXTT2=
EXTT3=
EXTT4=
EXTT5=
EXTT6=
EXTT7=
EXTT8=
EXTT9=
EXTT10=
EXTT11=
PLAYORDER=
